Coordinates
version=1
nRows=12
nColumns=24
inDegrees=yes

Units are S.I. units (second, meters, Newtons, ...)
Angles are in degrees.

endheader
time	pelvis_tilt	pelvis_list	pelvis_rotation	pelvis_tx	pelvis_ty	pelvis_tz	hip_flexion_r	hip_adduction_r	hip_rotation_r	knee_angle_r	ankle_angle_r	subtalar_angle_r	mtp_angle_r	hip_flexion_l	hip_adduction_l	hip_rotation_l	knee_angle_l	ankle_angle_l	subtalar_angle_l	mtp_angle_l	lumbar_extension	lumbar_bending	lumbar_rotation
      7.48000000	     60.35644192	      4.04635358	      8.08145744	      0.78114442	      1.08501048	     -0.27357120	     -2.86639975	    -12.05290144	     -4.75879476	    -57.34795705	    -15.17931626	     -2.53442434	     39.89911691	      8.50132447	    -18.53508735	      3.48002029	    -63.39395486	     -4.57103317	     12.82299485	    -41.79748399	      0.00000000	      0.00000000	      0.00000000
      7.49000000	     60.35934245	      4.04110251	      8.07570712	      0.78116127	      1.08501958	     -0.27355286	     -2.87083989	    -12.04572343	     -4.76006327	    -57.34481033	    -15.18406891	     -2.53399396	     39.93628069	      8.49609465	    -18.51110781	      3.38431937	    -63.40247779	     -4.57431564	     12.85472927	    -41.81479192	      0.00000000	      0.00000000	      0.00000000
      7.50000000	     60.36172699	      4.03698023	      8.07031224	      0.78117678	      1.08503326	     -0.27353798	     -2.87405850	    -12.04004153	     -4.76279311	    -57.34219545	    -15.18930066	     -2.53228776	     39.98173757	      8.49492703	    -18.48740076	      3.28767474	    -63.41246546	     -4.57437467	     12.88531272	    -41.84901749	      0.00000000	      0.00000000	      0.00000000
      7.51000000	     60.36400142	      4.03329278	      8.06556651	      0.78119112	      1.08504559	     -0.27352615	     -2.87657106	    -12.03524593	     -4.76636060	    -57.34027800	    -15.19488110	     -2.52940493	     40.03245449	      8.49697099	    -18.46408200	      3.18857614	    -63.42550214	     -4.57054763	     12.91307159	    -41.90023778	      0.00000000	      0.00000000	      0.00000000
      7.52000000	     60.36591221	      4.02934472	      8.06199511	      0.78120194	      1.08505109	     -0.27350901	     -2.87822924	    -12.03070992	     -4.77026957	    -57.33907029	    -15.20053210	     -2.52569639	     40.08462546	      8.50034236	    -18.44061015	      3.08607903	    -63.44305255	     -4.56279445	     12.93785088	    -41.96669873	      0.00000000	      0.00000000	      0.00000000
      7.53000000	     60.36721802	      4.02528741	      8.05929194	      0.78121203	      1.08505137	     -0.27348511	     -2.87860047	    -12.02627587	     -4.77393117	    -57.33847193	    -15.20584529	     -2.52168557	     40.13408120	      8.50369065	    -18.41684238	      2.98094618	    -63.46521337	     -4.55194819	     12.96122586	    -42.04486824	      0.00000000	      0.00000000	      0.00000000
      7.54000000	     60.36783473	      4.02175371	      8.05635536	      0.78122603	      1.08505302	     -0.27346408	     -2.87758315	    -12.02234251	     -4.77654976	    -57.33852697	    -15.21034477	     -2.51795927	     40.17677209	      8.50701731	    -18.39322765	      2.87545997	    -63.49040365	     -4.53960361	     12.98603888	    -42.12961959	      0.00000000	      0.00000000	      0.00000000
      7.55000000	     60.36769276	      4.01883499	      8.05235658	      0.78124212	      1.08505681	     -0.27345346	     -2.87551947	    -12.01936299	     -4.77738260	    -57.33942166	    -15.21356428	     -2.51502245	     40.20926806	      8.51115606	    -18.37015152	      2.77204115	    -63.51634950	     -4.52750713	     13.01542841	    -42.21452947	      0.00000000	      0.00000000	      0.00000000
      7.56000000	     60.36703976	      4.01599439	      8.04724247	      0.78125905	      1.08505733	     -0.27345089	     -2.87275530	    -12.01724479	     -4.77616111	    -57.34108169	    -15.21510947	     -2.51315341	     40.22920397	      8.51687951	    -18.34766881	      2.67217308	    -63.54136827	     -4.51664151	     13.05174640	    -42.29231005	      0.00000000	      0.00000000	      0.00000000
      7.57000000	     60.36651199	      4.01281259	      8.04133763	      0.78127867	      1.08505341	     -0.27344804	     -2.86946502	    -12.01525694	     -4.77324115	    -57.34293311	    -15.21471322	     -2.51232577	     40.23559661	      8.52426373	    -18.32593865	      2.57632146	    -63.56512173	     -4.50655096	     13.09589280	    -42.35542425	      0.00000000	      0.00000000	      0.00000000
      7.58000000	     60.36659542	      4.00932951	      8.03500380	      0.78129241	      1.08505010	     -0.27343625	     -2.86606183	    -12.01245272	     -4.76936291	    -57.34419333	    -15.21230223	     -2.51223067	     40.22897614	      8.53254413	    -18.30544631	      2.48428761	    -63.58855111	     -4.49536387	     13.14739315	    -42.39690470	      0.00000000	      0.00000000	      0.00000000
      7.59000000	     60.36745009	      4.00571139	      8.02876768	      0.78128848	      1.08505327	     -0.27341185	     -2.86343628	    -12.00818589	     -4.76529130	    -57.34430992	    -15.20806457	     -2.51238428	     40.21130531	      8.54060267	    -18.28651356	      2.39550567	    -63.61299381	     -4.48048222	     13.20503797	    -42.41129838	      0.00000000	      0.00000000	      0.00000000
